<svg xmlns="http://www.w3.org/2000/svg" xmlns:xlink="http://www.w3.org/1999/xlink" width="64.752" height="52.032" viewBox="0 0 64.752 52.032"><defs><style>.a{stroke:rgba(0,0,0,0);fill:url(#a);}</style><linearGradient id="a" x1="0.5" x2="0.5" y2="1" gradientUnits="objectBoundingBox"><stop offset="0" stop-color="#5ee2a0"/><stop offset="1" stop-color="#5ee2a0" stop-opacity="0.502"/></linearGradient></defs><path class="a" d="M38.2,50.933a27.01,27.01,0,0,1-10.976-3.866,63.71,63.71,0,0,1-13.04-10.394A63.778,63.778,0,0,1,4,23.882,27.956,27.956,0,0,1,.254,14.1C.128,13.3.082,12.477,0,11.664a10.7,10.7,0,0,1,2.608-7.28A24.941,24.941,0,0,1,6.2,1.063c2.237-1.674,4.238-1.361,5.93.866,1.135,1.494,2.138,3.09,3.176,4.657,1.014,1.53,2,3.08,2.994,4.62a4.16,4.16,0,0,1-.862,5.855c-.523.444-1.055.879-1.546,1.356A4.366,4.366,0,0,0,14.805,23.9a18.306,18.306,0,0,0,3.381,4.89,37.23,37.23,0,0,0,6.364,5.9,16.072,16.072,0,0,0,3.374,1.793,3.86,3.86,0,0,0,4.234-.922,26.025,26.025,0,0,0,1.834-2.006,4.085,4.085,0,0,1,5.633-.937c2.91,1.852,5.789,3.753,8.66,5.665a9.811,9.811,0,0,1,1.71,1.46,3.183,3.183,0,0,1,.635,3.915c-2.525,4.555-6.408,7.339-11.2,7.339Q38.826,50.994,38.2,50.933ZM42.43,40.6a10.2,10.2,0,0,1-6.224,4.2c-.931.192-1.9.211-2.848.31l-.048.142c1.256.362,2.5.782,3.77,1.075A7.873,7.873,0,0,0,45.8,43.054c.364-.492.363-.866-.159-1.213-.736-.488-1.476-.971-2.2-1.478A.792.792,0,0,0,43,40.187C42.794,40.187,42.623,40.334,42.43,40.6ZM8.259,5.064A7.947,7.947,0,0,0,4.648,9.947a13.588,13.588,0,0,0,1.164,7.6A37.288,37.288,0,0,1,6.7,13.387a10.309,10.309,0,0,1,3.764-4.855c.192-.149.422-.572.348-.693a32.2,32.2,0,0,0-1.83-2.677A.7.7,0,0,0,8.5,5.009.442.442,0,0,0,8.259,5.064ZM24.538,23.355c-.8,0-1.12-.333-1.12-1.136q0-7.337,0-14.673a1,1,0,0,1,.595-1.077.972.972,0,0,1,1.117.362c1.249,1.255,2.506,2.5,3.751,3.761a9,9,0,0,1,.593.75C31.7,9.1,33.779,7.018,35.858,4.935c.9-.9,1.168-.9,2.067-.006q2.047,2.038,4.085,4.084c.667.669.667,1.06-.008,1.737q-2.954,2.962-5.92,5.912a4.77,4.77,0,0,1-.63.447c.252.275.379.424.516.561q1.993,2,3.99,3.991c.316.315.609.71.317,1.1a1.471,1.471,0,0,1-1,.568q-4.434.033-8.87.028Q27.473,23.36,24.538,23.355Zm24.788-2.694q-2.1-2.082-4.18-4.177c-.662-.664-.655-1.051.029-1.737q2.954-2.961,5.92-5.911a3.766,3.766,0,0,1,.638-.415c-.283-.308-.41-.456-.548-.594q-1.993-2-3.99-3.991c-.318-.318-.593-.722-.3-1.107A1.49,1.49,0,0,1,47.9,2.179c2.416-.033,4.832-.03,7.248-.028h2.113c1.748,0,3.5,0,5.245,0,.945,0,1.24.3,1.24,1.219q0,7.2,0,14.408c0,.534-.022,1.04-.61,1.267-.57.22-.91-.17-1.256-.517q-1.83-1.831-3.659-3.664c-.186-.186-.381-.362-.76-.72a3.372,3.372,0,0,1-.4.659q-2.9,2.923-5.817,5.826c-.41.409-.695.614-.979.614S49.718,21.05,49.326,20.661Z" transform="translate(0.5 0.538)"/></svg>