<svg xmlns="http://www.w3.org/2000/svg" xmlns:xlink="http://www.w3.org/1999/xlink" width="71.99" height="51.908" viewBox="0 0 71.99 51.908"><defs><style>.a{stroke:rgba(0,0,0,0);fill:url(#a);}</style><linearGradient id="a" x1="0.5" x2="0.5" y2="1" gradientUnits="objectBoundingBox"><stop offset="0" stop-color="#55d8fe"/><stop offset="1" stop-color="#54d8ff" stop-opacity="0.502"/></linearGradient></defs><path class="a" d="M26.612,50.57a59.328,59.328,0,0,1-10.945-1.747c-1.912-.516-2.194-.949-1.954-2.931a18.617,18.617,0,0,1,2.569-7.454,9.458,9.458,0,0,1,4.378-3.451c2.847-1.362,5.706-2.7,8.542-4.084,1.1-.535,1.025-.553.385-1.548-.5-.772-.848-1.637-1.28-2.452a21.431,21.431,0,0,0-1.184-2.125,8.362,8.362,0,0,1-1.761-5.533,6.827,6.827,0,0,1,.509-1.5,3.623,3.623,0,0,0,.244-.82c.141-1.626.159-3.269.4-4.88a7.526,7.526,0,0,1,6.319-6.6,12.926,12.926,0,0,1,5.352-.012,7.907,7.907,0,0,1,6.444,7.333c.112,1.374.112,2.756.215,4.131a1.825,1.825,0,0,0,.4.958,2.624,2.624,0,0,1,.412,1.869,8.848,8.848,0,0,1-1.737,5.011,24.241,24.241,0,0,0-1.247,2.212c-.536.962-1.038,1.945-1.625,2.874-.246.39-.2.57.167.756,1.421.725,2.83,1.477,4.267,2.169Q48.106,34,50.769,35.183a9.27,9.27,0,0,1,4.986,5.208A18.718,18.718,0,0,1,57.3,46.255c.1,1.659-.153,2.108-1.8,2.508-1.935.471-3.9.85-5.862,1.174a51.567,51.567,0,0,1-5.291.646c-2.952.177-5.912.225-8.916.329C32.523,50.806,29.559,50.8,26.612,50.57ZM58,40.377c-.287-.665-.607-1.318-.938-1.963a12.371,12.371,0,0,0-6.276-5.558c-2.032-.921-4.076-1.818-6.108-2.74-.869-.394-.941-.569-.517-1.414.943-1.881,1.954-3.729,2.863-5.626A7.724,7.724,0,0,0,47.3,17.1a14.6,14.6,0,0,1-.566-3.965,9.885,9.885,0,0,0-3.07-7.1.756.756,0,0,1-.2-.946A7.226,7.226,0,0,1,50.34.058,13.355,13.355,0,0,1,54.6.47a7.114,7.114,0,0,1,4.888,6.069c.033,1.286.164,2.572.309,3.852a5.159,5.159,0,0,0,.433,1.13,2.548,2.548,0,0,1,.2.66,7.875,7.875,0,0,1-1.8,5.722,7.3,7.3,0,0,0-.673,1.283c-.562,1.111-1.122,2.223-1.74,3.446.7.368,1.455.8,2.239,1.17,2,.944,3.986,1.936,6.034,2.769a9.03,9.03,0,0,1,5.2,5.459,20.3,20.3,0,0,1,1.278,4.936c.119,1.028-.052,1.5-1.029,1.821A25.051,25.051,0,0,1,66,39.791c-2.453.385-4.928.628-7.392.948a1.04,1.04,0,0,1-.133.009C58.23,40.749,58.111,40.634,58,40.377Zm-45.928.351a67.807,67.807,0,0,1-9.622-1.457,8.583,8.583,0,0,1-1.725-.648A1.244,1.244,0,0,1,.01,37.239a18,18,0,0,1,2.345-7.3,6.294,6.294,0,0,1,2.8-2.651c2.606-1.237,5.217-2.463,7.819-3.707.636-.3,1.246-.664,1.873-1a25.669,25.669,0,0,1-1.271-2.238,19.765,19.765,0,0,0-1.943-3.559A7.289,7.289,0,0,1,10.561,12.1a.829.829,0,0,1,.229-.58,1.474,1.474,0,0,0,.491-1.261,41.4,41.4,0,0,1,.348-4.332A6.788,6.788,0,0,1,17.281.249a10.105,10.105,0,0,1,7.127.956,7.016,7.016,0,0,1,3.067,3.761,1.193,1.193,0,0,1-.412,1.362,10.43,10.43,0,0,0-2.012,2.955,11.339,11.339,0,0,0-.775,3.928,15.859,15.859,0,0,1-.859,4.849,4.638,4.638,0,0,0,.072,3.571c.717,1.74,1.561,3.427,2.365,5.13.333.7.721,1.384,1.051,2.091.317.681.251.882-.434,1.194-1.915.872-3.851,1.7-5.759,2.584-.952.443-1.879.949-2.785,1.481a11.893,11.893,0,0,0-4.766,5.917c-.207.482-.4.709-.91.709C12.2,40.736,12.136,40.733,12.072,40.728Z" transform="translate(0.501 0.497)"/></svg>