<svg xmlns="http://www.w3.org/2000/svg" xmlns:xlink="http://www.w3.org/1999/xlink" width="44.875" height="51.138" viewBox="0 0 44.875 51.138"><defs><style>.a{fill:url(#a);}</style><linearGradient id="a" x1="0.5" x2="0.5" y2="1" gradientUnits="objectBoundingBox"><stop offset="0" stop-color="#a3a0fb"/><stop offset="1" stop-color="#a3a0fb" stop-opacity="0.502"/></linearGradient></defs><path class="a" d="M25.49,51.138c-.185,0-.369,0-.552-.011.361-.018.722-.033,1.083-.049,1.227.039,1.388.061-.5.061Zm-13.1-.556a39.958,39.958,0,0,1-6.2-1.184A13.9,13.9,0,0,1,1.965,47.55,4.15,4.15,0,0,1,.192,45.185c-.064-.246-.128-.491-.192-.737V43.085c.17-.577.324-1.157.511-1.728a17.6,17.6,0,0,1,1.725-3.783,11,11,0,0,1,2.189-2.616,8.091,8.091,0,0,1,3.718-1.771,30.917,30.917,0,0,1,4.334-.468c.542-.035,1.081-.133,1.621-.2a15.5,15.5,0,0,0,2.727,3.967c1.092,1.3,2.244,2.558,3.367,3.835a1.166,1.166,0,0,1,.1.161l.065-.036c.029-.091.062-.181.086-.274.3-1.174.6-2.348.909-3.52a.221.221,0,0,0-.09-.271,2.087,2.087,0,0,1-.761-1.468c-.036-.243-.043-.491-.065-.756h3.945A3.309,3.309,0,0,1,24.2,35.5a1.879,1.879,0,0,1-.625.893.231.231,0,0,0-.071.191q.464,1.879.943,3.754a1.154,1.154,0,0,0,.055.133c.217-.233.423-.441.615-.662,1.087-1.245,2.184-2.48,3.251-3.741a18.45,18.45,0,0,0,2-2.751c.149-.263.262-.546.4-.83a32.952,32.952,0,0,0,4.084.405,13.678,13.678,0,0,1,3.436.762A7.983,7.983,0,0,1,41.2,35.707a13.5,13.5,0,0,1,2.657,4.374c.33.851.6,1.726.88,2.6a6.044,6.044,0,0,1,.141.707v.725c-.031.174-.058.348-.091.522a4.144,4.144,0,0,1-1.068,2.2A8.31,8.31,0,0,1,41,48.579a21.379,21.379,0,0,1-3.767,1.186,41.793,41.793,0,0,1-5.287.866c-1.32.128-2.642.245-3.966.341-.65.047-1.3.077-1.954.106C23.1,50.985,14.153,50.8,12.393,50.582ZM19.5,32.02A11.166,11.166,0,0,1,16.135,29.5a18.123,18.123,0,0,1-2.8-3.993.505.505,0,0,0-.15-.172,8.062,8.062,0,0,1-1.49-1.358.483.483,0,0,0-.275-.155,3.424,3.424,0,0,1-2.544-1.592,2.486,2.486,0,0,1-.438-1.3c-.016-1.023-.041-2.046,0-3.067a2.994,2.994,0,0,1,1.6-2.529,3.6,3.6,0,0,1,.717-.316.29.29,0,0,0,.238-.329c-.008-1.405-.019-2.813,0-4.218a9.862,9.862,0,0,1,1.478-5,11.019,11.019,0,0,1,3.978-3.88A11.823,11.823,0,0,1,21.4.04,1.836,1.836,0,0,0,21.606,0h1.7c.357.051.715.1,1.071.154A11.549,11.549,0,0,1,29.92,2.6a10.735,10.735,0,0,1,2.96,3.686,10.243,10.243,0,0,1,1.049,4.625c-.006,1.257,0,2.514-.006,3.771a.326.326,0,0,0,.264.372,3.22,3.22,0,0,1,2.171,2.368,2.814,2.814,0,0,1,.069.654c.008.852.006,1.7,0,2.556a3.252,3.252,0,0,1-1.982,2.909,3.881,3.881,0,0,1-1.639.3.24.24,0,0,0-.266.178A18.781,18.781,0,0,1,29.2,29.34a11.327,11.327,0,0,1-3.243,2.549,7.379,7.379,0,0,1-3.364.854A7.227,7.227,0,0,1,19.5,32.02Zm-2.955-4.961A11.725,11.725,0,0,0,18.415,29a7.06,7.06,0,0,0,3.577,1.606,5.5,5.5,0,0,0,3.157-.563,9.828,9.828,0,0,0,3.531-3.04,15.5,15.5,0,0,0,2.17-3.935c.1-.27.2-.542.3-.826a1.118,1.118,0,0,0,.16.079,1.833,1.833,0,0,0,.222.034V22.1c0-1.612-.01-3.225.006-4.836a2.847,2.847,0,0,0-.26-1.339c-.086-.171-.162-.347-.256-.514a4.045,4.045,0,0,0-2.112-1.916,3.57,3.57,0,0,0-2.11-.211,19.163,19.163,0,0,1-2.727.551,10.37,10.37,0,0,1-3.324-.164,7.572,7.572,0,0,0-1.006-.259,7.258,7.258,0,0,0-1.317.027,5.833,5.833,0,0,0-2.2.8c-.25.135-.5.26-.758.389l-.047-.047q.2-.561.4-1.121l-.065-.061a2.039,2.039,0,0,0-.462.291,6.976,6.976,0,0,0-1.3,2.231,6.341,6.341,0,0,0-.621,2.986,3.781,3.781,0,0,1,0,.383q0,1.363,0,2.727c0,.225.066.308.294.318a1.969,1.969,0,0,0,.376-.057c.013.032.031.078.05.124.3.712.59,1.426.893,2.136a.442.442,0,0,0,.187.219c.417.194.834.393,1.267.549a14.081,14.081,0,0,0,3.376.751.257.257,0,0,0,.267-.107,1.448,1.448,0,0,1,1.143-.569c.674-.012,1.35-.015,2.024,0a1.5,1.5,0,1,1-.023,3c-.66,0-1.321,0-1.981,0A1.482,1.482,0,0,1,20,27.7a.336.336,0,0,0-.2-.124c-.864-.156-1.731-.3-2.6-.456-.237-.043-.467-.116-.746-.186C16.509,27,16.526,27.033,16.547,27.059ZM22.53,3.837a12.333,12.333,0,0,1,7.556,2.376,9.1,9.1,0,0,0-7.771-3.952,9.079,9.079,0,0,0-7.388,3.816,12.007,12.007,0,0,1,7.446-2.241Z"/></svg>