<svg xmlns="http://www.w3.org/2000/svg" xmlns:xlink="http://www.w3.org/1999/xlink" width="35.548" height="50.113" viewBox="0 0 35.548 50.113"><defs><style>.a{stroke:rgba(0,0,0,0);fill:url(#a);}</style><linearGradient id="a" x1="0.5" x2="0.5" y2="1" gradientUnits="objectBoundingBox"><stop offset="0" stop-color="#fe5555"/><stop offset="1" stop-color="#ff5454" stop-opacity="0.502"/></linearGradient></defs><path class="a" d="M21.892,49.113a2.476,2.476,0,0,0-.4-.145,14.616,14.616,0,0,1-4.359-1.525,25.672,25.672,0,0,1-7.827-6.976,46.451,46.451,0,0,1-3.994-6.135A45.709,45.709,0,0,1,.983,24.173a20.452,20.452,0,0,1-.849-4.72A.934.934,0,0,0,0,19.146V16.1c.061-.4.114-.8.186-1.2a16.059,16.059,0,0,1,1.606-4.789A12.494,12.494,0,0,1,6.843,4.949C7.959,4.334,9.1,3.765,10.228,3.176H12.2a5.656,5.656,0,0,1,2.575,3.2,26.932,26.932,0,0,1,1.863,5.667,4.668,4.668,0,0,1-.667,3.845A5.205,5.205,0,0,1,14.428,17.2a20.159,20.159,0,0,0-4.009,2.668,4.538,4.538,0,0,0-1.463,5.453,19.309,19.309,0,0,0,2.073,3.949c1.161,1.874,2.389,3.708,3.635,5.527a11.763,11.763,0,0,0,1.472,1.658,3.009,3.009,0,0,0,3.771.441c.986-.492,1.943-1.044,2.911-1.572.445-.243.869-.532,1.331-.734a4.386,4.386,0,0,1,4.777.609,12.768,12.768,0,0,1,2.43,2.6c.751,1.037,1.526,2.061,2.206,3.144a7.885,7.885,0,0,1,.841,1.961,2.721,2.721,0,0,1-1.337,3.142C30.993,47.276,28.952,48.6,26.506,49c-.048.008-.086.074-.128.112Zm1.14-24.587a22.827,22.827,0,0,1-.006-3.308,1.91,1.91,0,0,1,2-1.868c1.044-.021,2.088-.014,3.132,0a1.847,1.847,0,0,1,2.114,1.7c.012.05.072.088.109.132v3.589c-.557,1.613-.875,1.831-2.667,1.831-.252,0-.5,0-.755-.007-.554-.008-1.109-.016-1.661.016q-.1.006-.2.006C23.9,26.609,23.158,25.916,23.032,24.526ZM25.8,17.772a2.039,2.039,0,0,1-1.887-2.036c-.193-1.77-.286-3.557-.586-5.308a58.22,58.22,0,0,1-.319-8.3A2.646,2.646,0,0,1,24.1,0h6.28V8.434c-.105.573-.24,1.142-.309,1.719-.149,1.239-.251,2.483-.4,3.722-.086.735-.262,1.461-.319,2.2A1.815,1.815,0,0,1,27.5,17.766a6.5,6.5,0,0,1-.787.044C26.407,17.81,26.1,17.793,25.8,17.772Z" transform="translate(0.5 0.5)"/></svg>